<svg id="Group_33" data-name="Group 33" xmlns="http://www.w3.org/2000/svg" width="50.696" height="59" viewBox="0 0 50.696 59">
  <path id="Path_4" data-name="Path 4" d="M629.706,248.393h4.577c.953,0,1.39.424,1.391,1.362q0,2.231,0,4.461c0,.948-.423,1.363-1.367,1.37-.515,0-1.031-.009-1.547,0-.328.009-.741-.165-.746.471,0,.589.3.66.762.684a16.67,16.67,0,0,1,3.285.606,24.941,24.941,0,0,1,9.441,4.763c.338.271,3.736,3.664,4.038,4.047a25.247,25.247,0,0,1,5.412,17.82,24.591,24.591,0,0,1-2.489,9.172,25.27,25.27,0,0,1-8.984,10.153,24.88,24.88,0,0,1-6.322,2.976,25.379,25.379,0,0,1-9.6,1.019,24.885,24.885,0,0,1-8.844-2.41,25.319,25.319,0,0,1-8.369-6.457,24.927,24.927,0,0,1-4.543-7.859,25.435,25.435,0,0,1-1.389-10.657,25.432,25.432,0,0,1,11.456-19.282,24.432,24.432,0,0,1,5.895-2.837,21.185,21.185,0,0,1,4.951-1.064c.47-.035.635-.209.618-.677-.013-.357-.107-.5-.481-.481-.644.027-1.289.014-1.934.005a1.135,1.135,0,0,1-1.246-1.169q-.056-2.423-.008-4.847c.014-.757.517-1.166,1.336-1.171C626.569,248.387,628.138,248.394,629.706,248.393ZM608,289.658a1.9,1.9,0,0,0,.068.442,25.389,25.389,0,0,0,3.422,6.067,22.538,22.538,0,0,0,4.841,4.648,23.224,23.224,0,0,0,7.017,3.373,25.216,25.216,0,0,0,5.294.9A22.492,22.492,0,0,0,636.674,304a22.2,22.2,0,0,0,8.374-4.817,23.135,23.135,0,0,0,6.017-8.606,24.435,24.435,0,0,0,1.664-7.486,22.052,22.052,0,0,0-.7-6.761,21.589,21.589,0,0,0-2.809-6.593,5.5,5.5,0,0,0-1.553-2,2,2,0,0,0-.2-.394,22.648,22.648,0,0,0-8.991-6.7,23.243,23.243,0,0,0-16.985-.246,22.15,22.15,0,0,0-6.431,3.748A23.125,23.125,0,0,0,608,289.658Zm21.674-36.4c1.071,0,2.143-.009,3.214.006.328,0,.464-.1.453-.436-.02-.537-.023-1.075,0-1.611.018-.364-.107-.481-.471-.478q-3.214.021-6.428,0c-.329,0-.463.091-.448.435.021.515.025,1.032,0,1.547-.021.4.091.563.531.549C627.573,253.235,628.624,253.258,629.673,253.258Z" transform="translate(-604.333 -248.392)" fill="#fff"/>
  <path id="Path_12" data-name="Path 12" d="M656.206,312.365a5.5,5.5,0,0,1,1.553,2,21.589,21.589,0,0,1,2.809,6.593,22.055,22.055,0,0,1,.7,6.762,24.434,24.434,0,0,1-1.664,7.486,23.137,23.137,0,0,1-6.017,8.606,22.2,22.2,0,0,1-8.374,4.817,22.5,22.5,0,0,1-8.033,1.085,25.217,25.217,0,0,1-5.294-.9,23.229,23.229,0,0,1-7.017-3.373,22.538,22.538,0,0,1-4.841-4.648,25.4,25.4,0,0,1-3.422-6.067,1.91,1.91,0,0,1-.068-.442l1.962-1.775a1.47,1.47,0,0,1,.269.579A20.529,20.529,0,0,0,634.6,346.817a20.031,20.031,0,0,0,11.677-1.305,19.8,19.8,0,0,0,7.836-5.953,20.462,20.462,0,0,0,4.344-9.719,19.162,19.162,0,0,0,.114-5.646,21.587,21.587,0,0,0-1.322-5.215,28.09,28.09,0,0,0-2.292-4.283A6.836,6.836,0,0,0,656.206,312.365Z" transform="translate(-612.875 -293.019)" fill="#47ffa7"/>
  <path id="Path_13" data-name="Path 13" d="M621.185,317.848c-.206-1.093-.5-2.169-.638-3.276a20.6,20.6,0,0,1,21.979-23.165,19.993,19.993,0,0,1,8.821,2.819,20.843,20.843,0,0,1,6.295,5.805,28.079,28.079,0,0,1,2.291,4.283,21.577,21.577,0,0,1,1.322,5.215,19.159,19.159,0,0,1-.114,5.646A20.462,20.462,0,0,1,656.8,324.9a19.8,19.8,0,0,1-7.836,5.953,20.031,20.031,0,0,1-11.677,1.305,20.529,20.529,0,0,1-15.829-13.727A1.468,1.468,0,0,0,621.185,317.848Zm1.532-5.9a18.159,18.159,0,1,0,18.068-18.237A18.2,18.2,0,0,0,622.717,311.95Z" transform="translate(-615.557 -278.356)" fill="#fff"/>
  <path id="Path_14" data-name="Path 14" d="M669.28,336.273c-.107-.768.516-1.073.909-1.483s.481-.607.016-1.052c-1.429-1.364-2.8-2.791-4.182-4.2a1.688,1.688,0,0,1-.594-.818,1.16,1.16,0,0,1,1.959-1.113c1.5,1.509,3.026,2.991,4.514,4.509.369.376.6.407.98.019q4.015-4.062,8.066-8.088c.254-.254.474-.568.855-.645a1.109,1.109,0,0,1,1.329.532,1.145,1.145,0,0,1-.206,1.421q-3.445,3.454-6.875,6.925c-.552.557-1.091,1.128-1.646,1.683-.238.238-.2.428.03.64a8.253,8.253,0,0,1,.714.727,1.312,1.312,0,0,1,0,1.833,1.284,1.284,0,0,1-1.78-.175c-.315-.3-.512-.869-.941-.878s-.64.562-.952.869a1.337,1.337,0,0,1-1.578.353A.942.942,0,0,1,669.28,336.273Z" transform="translate(-647.058 -300.691)" fill="#fff"/>
</svg>
