<?xml version="1.0" encoding="UTF-8"?>
<svg width="752pt" height="752pt" version="1.1" viewBox="0 0 752 752" xmlns="http://www.w3.org/2000/svg">
 <g fill="#9b9b9b">
  <path d="m471.31 348.77c0 19.289-15.637 34.926-34.926 34.926-19.289 0-34.926-15.637-34.926-34.926 0-19.289 15.637-34.926 34.926-34.926 19.289 0 34.926 15.637 34.926 34.926"/>
  <path d="m187.86 201.8 13.941-13.941 362.35 362.35-13.941 13.941z"/>
  <path d="m271.81 222.09h208.38c27.422 0 49.727 22.305 49.727 49.727v129.18l-62.242 42.691 68.051 68.051c5.3203-9.3203 8.3984-20.07 8.3984-31.551v-208.38c0-35.254-28.68-63.934-63.934-63.934h-208.38c-11.477 0-22.23 3.0781-31.551 8.3984l10.531 10.531c6.3945-2.9961 13.504-4.7227 21.02-4.7227z"/>
  <path d="m427.75 471.07-99.102-95.074-106.56 85.469v-189.66c0-7.5156 1.7227-14.625 4.7266-21.016l-10.531-10.531c-5.3242 9.3164-8.4023 20.074-8.4023 31.547v208.38c0 35.254 28.68 63.934 63.934 63.934h208.38c11.48 0 22.23-3.0781 31.551-8.3984l-72.52-72.52z"/>
 </g>
</svg>
